<svg width="20" height="21" viewBox="0 0 20 21" fill="none" xmlns="http://www.w3.org/2000/svg">
<path d="M15.5 20.9997C14.9662 21.0059 14.4382 20.8885 13.9574 20.6567C13.4765 20.4248 13.0558 20.0849 12.7282 19.6635C12.4006 19.242 12.1749 18.7505 12.0689 18.2273C11.9629 17.7041 11.9793 17.1635 12.117 16.6477L5.85697 13.0697C5.3289 13.5535 4.6649 13.8634 3.9549 13.9573C3.24489 14.0512 2.52317 13.9247 1.88746 13.5948C1.25175 13.265 0.732762 12.7477 0.400768 12.1131C0.0687727 11.4785 -0.0601903 10.7572 0.0313408 10.0469C0.122872 9.33661 0.430475 8.67157 0.9125 8.14187C1.39453 7.61217 2.02769 7.24339 2.72625 7.08547C3.42481 6.92755 4.15504 6.98811 4.81804 7.25895C5.48104 7.5298 6.0448 7.99785 6.43297 8.59972L12.116 5.35072C12.0425 5.07291 12.0035 4.78708 12 4.49972C11.993 3.68796 12.266 2.89858 12.7729 2.26452C13.2799 1.63046 13.9898 1.19044 14.7832 1.01855C15.5766 0.846653 16.405 0.953389 17.1289 1.32078C17.8528 1.68818 18.428 2.29379 18.7576 3.03564C19.0873 3.77749 19.1512 4.61028 18.9387 5.39377C18.7262 6.17726 18.2502 6.8636 17.5909 7.33723C16.9316 7.81086 16.1292 8.04284 15.3189 7.99412C14.5086 7.94539 13.7398 7.61894 13.142 7.06972L6.99197 10.5847C6.98497 10.8447 6.94897 11.1017 6.88297 11.3527L13.143 14.9297C13.562 14.5452 14.0684 14.2688 14.6185 14.1243C15.1685 13.9799 15.7455 13.9719 16.2993 14.1009C16.8531 14.23 17.3671 14.4922 17.7966 14.8649C18.2262 15.2376 18.5583 15.7095 18.7641 16.2396C18.9699 16.7698 19.0433 17.3421 18.9779 17.907C18.9124 18.4719 18.7101 19.0123 18.3885 19.4813C18.0669 19.9503 17.6357 20.3337 17.1323 20.5983C16.629 20.8629 16.0686 21.0007 15.5 20.9997ZM15.5 15.9997C15.1021 15.9997 14.7206 16.1578 14.4393 16.4391C14.158 16.7204 14 17.1019 14 17.4997C14 17.8975 14.158 18.2791 14.4393 18.5604C14.7206 18.8417 15.1021 18.9997 15.5 18.9997C15.8978 18.9997 16.2793 18.8417 16.5606 18.5604C16.8419 18.2791 17 17.8975 17 17.4997C17 17.1019 16.8419 16.7204 16.5606 16.4391C16.2793 16.1578 15.8978 15.9997 15.5 15.9997ZM3.49997 8.99972C3.10215 8.99972 2.72062 9.15776 2.43931 9.43906C2.15801 9.72037 1.99997 10.1019 1.99997 10.4997C1.99997 10.8975 2.15801 11.2791 2.43931 11.5604C2.72062 11.8417 3.10215 11.9997 3.49997 11.9997C3.8978 11.9997 4.27933 11.8417 4.56063 11.5604C4.84194 11.2791 4.99997 10.8975 4.99997 10.4997C4.99997 10.1019 4.84194 9.72037 4.56063 9.43906C4.27933 9.15776 3.8978 8.99972 3.49997 8.99972ZM15.5 2.99972C15.303 2.99972 15.1079 3.03852 14.9259 3.1139C14.744 3.18929 14.5786 3.29977 14.4393 3.43906C14.3 3.57835 14.1895 3.74371 14.1142 3.9257C14.0388 4.10769 14 4.30274 14 4.49972C14 4.69671 14.0388 4.89176 14.1142 5.07375C14.1895 5.25574 14.3 5.4211 14.4393 5.56038C14.5786 5.69967 14.744 5.81016 14.9259 5.88554C15.1079 5.96092 15.303 5.99972 15.5 5.99972C15.8978 5.99972 16.2793 5.84169 16.5606 5.56038C16.8419 5.27908 17 4.89755 17 4.49972C17 4.1019 16.8419 3.72037 16.5606 3.43906C16.2793 3.15776 15.8978 2.99972 15.5 2.99972Z" fill="black"/>
</svg>
